<svg xmlns="http://www.w3.org/2000/svg"  viewBox="0 0 50 50" width="25px" height="25px"><path d="M25 15c5.523 0 10 4.477 10 10s-4.477 10-10 10-10-4.477-10-10S19.477 15 25 15zM25 34c4.971 0 9-4.029 9-9s-4.029-9-9-9-9 4.029-9 9S20.029 34 25 34zM25.5 4.5c0 .176 0 5.824 0 6 0 .276-.224.5-.5.5s-.5-.224-.5-.5c0-.176 0-5.824 0-6C24.5 4.224 24.724 4 25 4S25.5 4.224 25.5 4.5zM39.849 10.858c-.124.124-4.118 4.118-4.243 4.243-.195.195-.512.195-.707 0s-.195-.512 0-.707c.124-.124 4.118-4.118 4.243-4.243.195-.195.512-.195.707 0S40.045 10.663 39.849 10.858zM45.5 25.5c-.176 0-5.824 0-6 0-.276 0-.5-.224-.5-.5s.224-.5.5-.5c.176 0 5.824 0 6 0 .276 0 .5.224.5.5S45.776 25.5 45.5 25.5zM39.142 39.849c-.124-.124-4.118-4.118-4.243-4.243-.195-.195-.195-.512 0-.707s.512-.195.707 0c.124.124 4.118 4.118 4.243 4.243.195.195.195.512 0 .707S39.337 40.045 39.142 39.849zM24.5 45.5c0-.176 0-5.824 0-6 0-.276.224-.5.5-.5s.5.224.5.5c0 .176 0 5.824 0 6 0 .276-.224.5-.5.5S24.5 45.776 24.5 45.5zM10.151 39.142c.124-.124 4.118-4.118 4.243-4.243.195-.195.512-.195.707 0s.195.512 0 .707c-.124.124-4.118 4.118-4.243 4.243-.195.195-.512.195-.707 0S9.955 39.337 10.151 39.142zM4.5 24.5c.176 0 5.824 0 6 0 .276 0 .5.224.5.5s-.224.5-.5.5c-.176 0-5.824 0-6 0C4.224 25.5 4 25.276 4 25S4.224 24.5 4.5 24.5zM10.858 10.151c.124.124 4.118 4.118 4.243 4.243.195.195.195.512 0 .707s-.512.195-.707 0c-.124-.124-4.118-4.118-4.243-4.243-.195-.195-.195-.512 0-.707S10.663 9.955 10.858 10.151z"/></svg>